HIERARCHY
ROOT hip
{
OFFSET 0.05 93.93 0.81
CHANNELS 6 Xposition Yposition Zposition Zrotation Xrotation Yrotation
JOINT abdomen
{
OFFSET 0 7.23 0
CHANNELS 6 Xposition Yposition Zposition Zrotation Xrotation Yrotation
JOINT chest
{
OFFSET 0 16.54 0
CHANNELS 6 Xposition Yposition Zposition Zrotation Xrotation Yrotation
JOINT neck
{
OFFSET 0 34.21 0
CHANNELS 6 Xposition Yposition Zposition Zrotation Xrotation Yrotation
JOINT head
{
OFFSET 0 6.29 0
CHANNELS 6 Xposition Yposition Zposition Zrotation Xrotation Yrotation
End Site
{
OFFSET 0 21.21 0
}
}
}
JOINT lCollar
{
OFFSET 4.06 26.61 -1.12
CHANNELS 6 Xposition Yposition Zposition Zrotation Xrotation Yrotation
JOINT lShldr
{
OFFSET 14.17 0 0
CHANNELS 6 Xposition Yposition Zposition Zrotation Xrotation Yrotation
JOINT lForeArm
{
OFFSET 26.12 0 0
CHANNELS 6 Xposition Yposition Zposition Zrotation Xrotation Yrotation
JOINT lHand
{
OFFSET 27.71 0 0
CHANNELS 6 Xposition Yposition Zposition Zrotation Xrotation Yrotation
JOINT lThumb1
{
OFFSET 2.29 -0.46 1.83
CHANNELS 6 Xposition Yposition Zposition Zrotation Xrotation Yrotation
JOINT lThumb2
{
OFFSET 5.29 0 0
CHANNELS 6 Xposition Yposition Zposition Zrotation Xrotation Yrotation
JOINT lThumb3
{
OFFSET 3.01 0 0
CHANNELS 6 Xposition Yposition Zposition Zrotation Xrotation Yrotation
End Site
{
OFFSET 2.62 0 0
}
}
}
}
JOINT lIndex1
{
OFFSET 9.37 0.29 2.59
CHANNELS 6 Xposition Yposition Zposition Zrotation Xrotation Yrotation
JOINT lIndex2
{
OFFSET 4.34 0 0
CHANNELS 6 Xposition Yposition Zposition Zrotation Xrotation Yrotation
JOINT lIndex3
{
OFFSET 2.16 0 0
CHANNELS 6 Xposition Yposition Zposition Zrotation Xrotation Yrotation
End Site
{
OFFSET 2.20 0 0
}
}
}
}
JOINT lMid1
{
OFFSET 9.47 0.83 0.29
CHANNELS 6 Xposition Yposition Zposition Zrotation Xrotation Yrotation
JOINT lMid2
{
OFFSET 4.77 0 0
CHANNELS 6 Xposition Yposition Zposition Zrotation Xrotation Yrotation
JOINT lMid3
{
OFFSET 2.87 0 0
CHANNELS 6 Xposition Yposition Zposition Zrotation Xrotation Yrotation
End Site
{
OFFSET 2.09 0 0
}
}
}
}
JOINT lRing1
{
OFFSET 8.65 1.01 -1.70
CHANNELS 6 Xposition Yposition Zposition Zrotation Xrotation Yrotation
JOINT lRing2
{
OFFSET 4.54 0 0
CHANNELS 6 Xposition Yposition Zposition Zrotation Xrotation Yrotation
JOINT lRing3
{
OFFSET 2.50 0 0
CHANNELS 6 Xposition Yposition Zposition Zrotation Xrotation Yrotation
End Site
{
OFFSET 2.20 0 0
}
}
}
}
JOINT lPinky1
{
OFFSET 7.69 0.66 -3.90
CHANNELS 6 Xposition Yposition Zposition Zrotation Xrotation Yrotation
JOINT lPinky2
{
OFFSET 3.21 0 0
CHANNELS 6 Xposition Yposition Zposition Zrotation Xrotation Yrotation
JOINT lPinky3
{
OFFSET 1.92 0 0
CHANNELS 6 Xposition Yposition Zposition Zrotation Xrotation Yrotation
End Site
{
OFFSET 1.78 0 0
}
}
}
}
}
}
}
}
JOINT rCollar
{
OFFSET -4.06 26.61 -1.12
CHANNELS 6 Xposition Yposition Zposition Zrotation Xrotation Yrotation
JOINT rShldr
{
OFFSET -14.17 0 0
CHANNELS 6 Xposition Yposition Zposition Zrotation Xrotation Yrotation
JOINT rForeArm
{
OFFSET -26.12 0 0
CHANNELS 6 Xposition Yposition Zposition Zrotation Xrotation Yrotation
JOINT rHand
{
OFFSET -27.71 0 0
CHANNELS 6 Xposition Yposition Zposition Zrotation Xrotation Yrotation
JOINT rThumb1
{
OFFSET -2.29 -0.46 1.83
CHANNELS 6 Xposition Yposition Zposition Zrotation Xrotation Yrotation
JOINT rThumb2
{
OFFSET -5.29 0 0
CHANNELS 6 Xposition Yposition Zposition Zrotation Xrotation Yrotation
JOINT rThumb3
{
OFFSET -3.01 0 0
CHANNELS 6 Xposition Yposition Zposition Zrotation Xrotation Yrotation
End Site
{
OFFSET -2.62 0 0
}
}
}
}
JOINT rIndex1
{
OFFSET -9.37 0.29 2.59
CHANNELS 6 Xposition Yposition Zposition Zrotation Xrotation Yrotation
JOINT rIndex2
{
OFFSET -4.34 0 0
CHANNELS 6 Xposition Yposition Zposition Zrotation Xrotation Yrotation
JOINT rIndex3
{
OFFSET -2.16 0 0
CHANNELS 6 Xposition Yposition Zposition Zrotation Xrotation Yrotation
End Site
{
OFFSET -2.20 0 0
}
}
}
}
JOINT rMid1
{
OFFSET -9.47 0.83 0.29
CHANNELS 6 Xposition Yposition Zposition Zrotation Xrotation Yrotation
JOINT rMid2
{
OFFSET -4.77 0 0
CHANNELS 6 Xposition Yposition Zposition Zrotation Xrotation Yrotation
JOINT rMid3
{
OFFSET -2.87 0 0
CHANNELS 6 Xposition Yposition Zposition Zrotation Xrotation Yrotation
End Site
{
OFFSET -2.09 0 0
}
}
}
}
JOINT rRing1
{
OFFSET -8.65 1.01 -1.70
CHANNELS 6 Xposition Yposition Zposition Zrotation Xrotation Yrotation
JOINT rRing2
{
OFFSET -4.54 0 0
CHANNELS 6 Xposition Yposition Zposition Zrotation Xrotation Yrotation
JOINT rRing3
{
OFFSET -2.50 0 0
CHANNELS 6 Xposition Yposition Zposition Zrotation Xrotation Yrotation
End Site
{
OFFSET -2.20 0 0
}
}
}
}
JOINT rPinky1
{
OFFSET -7.69 0.66 -3.90
CHANNELS 6 Xposition Yposition Zposition Zrotation Xrotation Yrotation
JOINT rPinky2
{
OFFSET -3.21 0 0
CHANNELS 6 Xposition Yposition Zposition Zrotation Xrotation Yrotation
JOINT rPinky3
{
OFFSET -1.92 0 0
CHANNELS 6 Xposition Yposition Zposition Zrotation Xrotation Yrotation
End Site
{
OFFSET -1.78 0 0
}
}
}
}
}
}
}
}
}
}
JOINT lThigh
{
OFFSET 8.73 -0 0
CHANNELS 6 Xposition Yposition Zposition Zrotation Xrotation Yrotation
JOINT lShin
{
OFFSET 0 -46.66 0
CHANNELS 6 Xposition Yposition Zposition Zrotation Xrotation Yrotation
JOINT lFoot
{
OFFSET 0 -40.14 0
CHANNELS 6 Xposition Yposition Zposition Zrotation Xrotation Yrotation
JOINT lToes
{
OFFSET 0 -8.88 14.22
CHANNELS 6 Xposition Yposition Zposition Zrotation Xrotation Yrotation
End Site
{
OFFSET 0 0 6.29
}
}
}
}
}
JOINT rThigh
{
OFFSET -8.73 0 -0
CHANNELS 6 Xposition Yposition Zposition Zrotation Xrotation Yrotation
JOINT rShin
{
OFFSET 0 -46.66 0
CHANNELS 6 Xposition Yposition Zposition Zrotation Xrotation Yrotation
JOINT rFoot
{
OFFSET 0 -40.14 0
CHANNELS 6 Xposition Yposition Zposition Zrotation Xrotation Yrotation
JOINT rToes
{
OFFSET 0 -8.88 14.22
CHANNELS 6 Xposition Yposition Zposition Zrotation Xrotation Yrotation
End Site
{
OFFSET 0 0 6.29
}
}
}
}
}
}
MOTION
Frames: 5
Frame Time: 0.03
0.05 93.93 0.81 0.16 -5.79 -4.91 0 7.23 0 -1.15 -0.26 -0.54 0 16.54 0 -2.26 1.34 -0.94 0 34.21 0 2.53 36.93 -0.04 0 6.29 0 2.96 -36.74 5.35 4.06 26.61 -1.12 4.08 -4.56 -1.83 14.17 0 0 -81.74 -7.69 1.44 26.12 0 0 -0.07 0 -5.16 27.71 0 0 -20.82 -8.98 3.29 2.29 -0.46 1.83 71.11 78.37 -91.33 5.29 0 0 -2.35 -10.85 10.20 3.01 0 0 2.38 -1.28 5.63 9.37 0.29 2.59 -18.35 -1.65 1.32 4.34 0 0 -26.40 -1.08 5.78 2.16 0 0 -10.81 -0.21 1.90 9.47 0.83 0.29 -15.55 -4.31 2.73 4.77 0 0 -32.94 -2.49 8.71 2.87 0 0 -5.01 0.04 2.88 8.65 1.01 -1.70 -19.25 2.24 6.50 4.54 0 0 -20.06 -0.54 3.07 2.50 0 0 -0.13 0.06 1.07 7.69 0.66 -3.90 -24.89 -9.39 9.96 3.21 0 0 -19.25 0.20 2.82 1.92 0 0 -1.00 0.05 1.99 -4.06 26.61 -1.12 2.20 -4.05 0.65 -14.17 0 0 78.91 15.30 -12.79 -26.12 0 0 0.34 0.07 23.76 -27.71 0 0 15.39 -17.13 -1.45 -2.29 -0.46 1.83 -53.70 74.67 76.66 -5.29 0 0 7.19 8.13 -13.80 -3.01 0 0 -9.02 9.34 2.00 -9.37 0.29 2.59 10.55 -1.26 6.07 -4.34 0 0 17.39 -0.32 -3.90 -2.16 0 0 16.22 -0.50 -3.09 -9.47 0.83 0.29 12.95 -4.21 0.48 -4.77 0 0 26.96 -1.66 -7.29 -2.87 0 0 6.97 0.02 -3.43 -8.65 1.01 -1.70 12.92 2.49 -3.62 -4.54 0 0 28.74 -1.11 -4.34 -2.50 0 0 0.70 -0.01 -1.18 -7.69 0.66 -3.90 20.34 -9.17 -3.26 -3.21 0 0 22.22 -1.58 -8.03 -1.92 0 0 3.44 0.02 -2.89 8.73 -0 0 5.46 -1.29 22.38 0 -46.66 0 5.28 29.12 -6.01 0 -40.14 0 -5.78 -20.69 6.90 0 -8.88 14.22 0 0 0 -8.73 0 -0 -9.27 -2.84 -17.90 0 -46.66 0 -4.96 29.11 2.95 0 -40.14 0 9.26 -18.30 -6.39 0 -8.88 14.22 0 0 0 
0.05 93.93 0.81 0.16 -5.77 -4.91 0 7.23 0 -1.15 -0.25 -0.54 0 16.54 0 -2.26 1.36 -0.94 0 34.21 0 2.53 36.93 -0.04 0 6.29 0 3.00 -36.80 5.36 4.06 26.61 -1.12 4.07 -4.56 -1.86 14.17 0 0 -81.74 -7.70 1.46 26.12 0 0 -0.07 0 -5.20 27.71 0 0 -20.82 -9.01 3.28 2.29 -0.46 1.83 71.25 78.34 -91.49 5.29 0 0 -2.33 -10.83 10.19 3.01 0 0 2.38 -1.28 5.63 9.37 0.29 2.59 -18.35 -1.65 1.31 4.34 0 0 -26.39 -1.08 5.78 2.16 0 0 -10.81 -0.21 1.90 9.47 0.83 0.29 -15.53 -4.30 2.73 4.77 0 0 -32.94 -2.49 8.71 2.87 0 0 -5.01 0.04 2.88 8.65 1.01 -1.70 -19.26 2.24 6.50 4.54 0 0 -20.07 -0.54 3.07 2.50 0 0 -0.13 0.06 1.07 7.69 0.66 -3.90 -24.90 -9.39 9.96 3.21 0 0 -19.25 0.20 2.82 1.92 0 0 -1.00 0.05 1.99 -4.06 26.61 -1.12 2.21 -4.04 0.67 -14.17 0 0 78.88 15.25 -12.80 -26.12 0 0 0.34 0.07 23.78 -27.71 0 0 15.38 -17.15 -1.45 -2.29 -0.46 1.83 -53.71 74.68 76.67 -5.29 0 0 7.20 8.13 -13.80 -3.01 0 0 -9.03 9.34 1.99 -9.37 0.29 2.59 10.57 -1.26 6.06 -4.34 0 0 17.39 -0.32 -3.90 -2.16 0 0 16.22 -0.50 -3.09 -9.47 0.83 0.29 12.96 -4.21 0.47 -4.77 0 0 26.96 -1.66 -7.29 -2.87 0 0 6.97 0.02 -3.43 -8.65 1.01 -1.70 12.93 2.49 -3.61 -4.54 0 0 28.74 -1.11 -4.34 -2.50 0 0 0.69 -0 -1.18 -7.69 0.66 -3.90 20.36 -9.17 -3.25 -3.21 0 0 22.22 -1.58 -8.03 -1.92 0 0 3.44 0.02 -2.89 8.73 -0 0 5.47 -1.32 22.38 0 -46.66 0 5.28 29.14 -6.01 0 -40.14 0 -5.78 -20.70 6.90 0 -8.88 14.22 0 0 0 -8.73 0 -0 -9.26 -2.86 -17.89 0 -46.66 0 -4.97 29.13 2.94 0 -40.14 0 9.27 -18.30 -6.39 0 -8.88 14.22 0 0 0 
0.05 93.92 0.81 0.16 -5.75 -4.91 0 7.23 0 -1.15 -0.24 -0.54 0 16.54 0 -2.26 1.38 -0.94 0 34.21 0 2.53 36.93 -0.04 0 6.29 0 3.03 -36.86 5.38 4.06 26.61 -1.12 4.07 -4.56 -1.88 14.17 0 0 -81.75 -7.74 1.48 26.12 0 0 -0.07 0 -5.21 27.71 0 0 -20.82 -9.00 3.27 2.29 -0.46 1.83 71.39 78.32 -91.64 5.29 0 0 -2.32 -10.81 10.18 3.01 0 0 2.38 -1.28 5.63 9.37 0.29 2.59 -18.35 -1.65 1.30 4.34 0 0 -26.38 -1.07 5.78 2.16 0 0 -10.81 -0.21 1.90 9.47 0.83 0.29 -15.53 -4.30 2.73 4.77 0 0 -32.94 -2.49 8.72 2.87 0 0 -5.01 0.04 2.88 8.65 1.01 -1.70 -19.26 2.24 6.50 4.54 0 0 -20.07 -0.54 3.07 2.50 0 0 -0.13 0.06 1.07 7.69 0.66 -3.90 -24.91 -9.39 9.96 3.21 0 0 -19.26 0.20 2.83 1.92 0 0 -1.00 0.05 1.99 -4.06 26.61 -1.12 2.22 -4.04 0.68 -14.17 0 0 78.85 15.20 -12.80 -26.12 0 0 0.34 0.07 23.80 -27.71 0 0 15.38 -17.17 -1.44 -2.29 -0.46 1.83 -53.71 74.68 76.68 -5.29 0 0 7.21 8.12 -13.81 -3.01 0 0 -9.03 9.34 1.99 -9.37 0.29 2.59 10.57 -1.26 6.05 -4.34 0 0 17.39 -0.32 -3.90 -2.16 0 0 16.23 -0.50 -3.09 -9.47 0.83 0.29 12.97 -4.21 0.46 -4.77 0 0 26.97 -1.66 -7.29 -2.87 0 0 6.96 0.02 -3.43 -8.65 1.01 -1.70 12.94 2.49 -3.60 -4.54 0 0 28.74 -1.11 -4.34 -2.50 0 0 0.70 -0 -1.18 -7.69 0.66 -3.90 20.37 -9.17 -3.23 -3.21 0 0 22.23 -1.58 -8.03 -1.92 0 0 3.44 0.02 -2.89 8.73 -0 0 5.47 -1.35 22.38 0 -46.66 0 5.29 29.16 -6.01 0 -40.14 0 -5.79 -20.72 6.90 0 -8.88 14.22 0 0 -0 -8.73 0 -0 -9.25 -2.89 -17.88 0 -46.66 0 -4.98 29.14 2.93 0 -40.14 0 9.28 -18.31 -6.38 0 -8.88 14.22 0 0 0 
0.05 93.92 0.81 0.16 -5.73 -4.91 0 7.23 0 -1.15 -0.23 -0.55 0 16.54 0 -2.26 1.40 -0.95 0 34.21 0 2.52 36.95 -0.04 0 6.29 0 3.02 -36.93 5.37 4.06 26.61 -1.12 4.05 -4.56 -1.90 14.17 0 0 -81.73 -7.78 1.49 26.12 0 0 -0.07 0 -5.23 27.71 0 0 -20.83 -8.97 3.28 2.29 -0.46 1.83 71.48 78.34 -91.70 5.29 0 0 -2.32 -10.80 10.17 3.01 0 0 2.38 -1.28 5.63 9.37 0.29 2.59 -18.36 -1.65 1.30 4.34 0 0 -26.37 -1.07 5.78 2.16 0 0 -10.81 -0.21 1.90 9.47 0.83 0.29 -15.54 -4.30 2.73 4.77 0 0 -32.95 -2.49 8.72 2.87 0 0 -5.01 0.04 2.88 8.65 1.01 -1.70 -19.26 2.24 6.50 4.54 0 0 -20.08 -0.54 3.07 2.50 0 0 -0.13 0.06 1.07 7.69 0.66 -3.90 -24.92 -9.39 9.96 3.21 0 0 -19.26 0.20 2.83 1.92 0 0 -1.00 0.05 1.99 -4.06 26.61 -1.12 2.23 -4.04 0.70 -14.17 0 0 78.80 15.15 -12.79 -26.12 0 0 0.34 0.07 23.81 -27.71 0 0 15.38 -17.19 -1.44 -2.29 -0.46 1.83 -53.73 74.68 76.71 -5.29 0 0 7.22 8.11 -13.82 -3.01 0 0 -9.03 9.34 1.98 -9.37 0.29 2.59 10.55 -1.26 6.04 -4.34 0 0 17.40 -0.32 -3.90 -2.16 0 0 16.24 -0.50 -3.09 -9.47 0.83 0.29 12.97 -4.21 0.45 -4.77 0 0 26.97 -1.66 -7.29 -2.87 0 0 6.97 0.02 -3.43 -8.65 1.01 -1.70 12.95 2.49 -3.60 -4.54 0 0 28.74 -1.11 -4.34 -2.50 0 0 0.70 -0 -1.18 -7.69 0.66 -3.90 20.38 -9.18 -3.22 -3.21 0 0 22.22 -1.58 -8.03 -1.92 0 0 3.44 0.02 -2.89 8.73 -0 0 5.47 -1.38 22.37 0 -46.66 0 5.29 29.18 -6.00 0 -40.14 0 -5.79 -20.73 6.90 0 -8.88 14.22 0 0 -0 -8.73 0 -0 -9.25 -2.92 -17.87 0 -46.66 0 -4.99 29.16 2.92 0 -40.14 0 9.29 -18.32 -6.38 0 -8.88 14.22 0 0 0 
0.06 93.92 0.81 0.16 -5.71 -4.91 0 7.23 0 -1.15 -0.21 -0.55 0 16.54 0 -2.26 1.42 -0.95 0 34.21 0 2.52 36.96 -0.04 0 6.29 0 2.97 -37.00 5.35 4.06 26.61 -1.12 4.02 -4.56 -1.92 14.17 0 0 -81.70 -7.83 1.50 26.12 0 0 -0.07 0 -5.25 27.71 0 0 -20.84 -8.98 3.28 2.29 -0.46 1.83 71.46 78.40 -91.62 5.29 0 0 -2.32 -10.81 10.17 3.01 0 0 2.38 -1.28 5.64 9.37 0.29 2.59 -18.38 -1.65 1.31 4.34 0 0 -26.38 -1.07 5.78 2.16 0 0 -10.81 -0.21 1.90 9.47 0.83 0.29 -15.57 -4.31 2.74 4.77 0 0 -32.95 -2.49 8.72 2.87 0 0 -5.00 0.04 2.88 8.65 1.01 -1.70 -19.27 2.23 6.49 4.54 0 0 -20.08 -0.54 3.07 2.50 0 0 -0.13 0.06 1.07 7.69 0.66 -3.90 -24.92 -9.39 9.96 3.21 0 0 -19.26 0.20 2.83 1.92 0 0 -1.00 0.05 1.99 -4.06 26.61 -1.12 2.26 -4.04 0.72 -14.17 0 0 78.74 15.08 -12.79 -26.12 0 0 0.34 0.07 23.87 -27.71 0 0 15.38 -17.23 -1.46 -2.29 -0.46 1.83 -53.79 74.68 76.79 -5.29 0 0 7.24 8.10 -13.83 -3.01 0 0 -9.03 9.34 1.98 -9.37 0.29 2.59 10.50 -1.26 6.05 -4.34 0 0 17.41 -0.32 -3.91 -2.16 0 0 16.25 -0.50 -3.09 -9.47 0.83 0.29 12.97 -4.21 0.44 -4.77 0 0 26.97 -1.66 -7.29 -2.87 0 0 6.98 0.02 -3.43 -8.65 1.01 -1.70 12.94 2.49 -3.62 -4.54 0 0 28.74 -1.11 -4.34 -2.50 0 0 0.71 -0 -1.18 -7.69 0.66 -3.90 20.37 -9.18 -3.22 -3.21 0 0 22.22 -1.57 -8.02 -1.92 0 0 3.44 0.02 -2.89 8.73 -0 0 5.47 -1.41 22.37 0 -46.66 0 5.29 29.19 -5.98 0 -40.14 0 -5.79 -20.73 6.90 0 -8.88 14.22 0 0 -0 -8.73 0 -0 -9.25 -2.94 -17.86 0 -46.66 0 -5.00 29.16 2.91 0 -40.14 0 9.30 -18.32 -6.38 0 -8.88 14.22 0 0 -0 
